<svg xmlns="http://www.w3.org/2000/svg" viewBox="0 0 32 32">
  <defs>
    <linearGradient id="bg" x1="0%" y1="0%" x2="100%" y2="100%">
      <stop offset="0%" style="stop-color:#06b6d4"/>
      <stop offset="100%" style="stop-color:#0891b2"/>
    </linearGradient>
  </defs>
  
  <!-- Background rounded square -->
  <rect width="32" height="32" rx="8" fill="url(#bg)"/>
  
  <!-- Stylized head/mind icon representing mental wellness -->
  <g fill="none" stroke="#ffffff" stroke-width="1.8" stroke-linecap="round" stroke-linejoin="round">
    <!-- Head outline -->
    <path d="M16 6c-4.4 0-8 3.6-8 8 0 2.2.9 4.2 2.3 5.7.5.5.7 1.2.7 1.8v2.5c0 .6.4 1 1 1h8c.6 0 1-.4 1-1v-2.5c0-.7.3-1.3.7-1.8 1.4-1.5 2.3-3.5 2.3-5.7 0-4.4-3.6-8-8-8z"/>
    <!-- Inner glow/thought - represents calm mind -->
    <circle cx="16" cy="13" r="2.5" fill="#ffffff" stroke="none" opacity="0.9"/>
    <!-- Small sparkle/wellness indicator -->
    <path d="M16 8v1.5M12.5 10l1 1M19.5 10l-1 1" stroke-width="1.5"/>
  </g>
</svg>
